<svg id="Icon" xmlns="http://www.w3.org/2000/svg" viewBox="0 0 56.69 56.69"><defs><style>.cls-1{fill:#becd2d;stroke:#becd2d;stroke-linejoin:round;}.cls-1,.cls-2{stroke-linecap:round;}.cls-2,.cls-3{fill:none;stroke:#343a40;stroke-miterlimit:10;stroke-width:1.5px;}</style></defs><path class="cls-1" d="M29.55,50.56a2.65,2.65,0,0,0,3.77,0h0a2.67,2.67,0,0,0,0-3.77L31.6,45.05l3.3,3.3a2.68,2.68,0,0,0,3.78,0h0a2.67,2.67,0,0,0,0-3.77l-3.31-3.31L40.13,46a2.63,2.63,0,0,0,3.72,0h0a2.64,2.64,0,0,0,0-3.72l-4.78-4.8,4.74,4.74a2.64,2.64,0,0,0,3.72,0h0a2.63,2.63,0,0,0,0-3.72L42.6,33.59l-10.11-10-2,2a3.25,3.25,0,0,1-4.59-.09h0a3.25,3.25,0,0,1-.09-4.59l3-2.82a4.07,4.07,0,0,0-2.54-1.53,4.79,4.79,0,0,0-3.33,1l-.87.53a4.59,4.59,0,0,1-3.85.18L15.74,17.1a5,5,0,0,0-5.3.77L4.7,23.25A4.24,4.24,0,0,0,5.23,29l4.5,4.52,2.39-2.39a2.73,2.73,0,0,1,3.87,0l.35.35a2.75,2.75,0,0,1,0,3.88s2.38-1.62,4.15,0l.07.06a2.94,2.94,0,0,1,0,4.16,3.23,3.23,0,0,1,3.92.32h0a3,3,0,0,1,0,4.22s2.2-1.39,3.91.2l.12.12a2.89,2.89,0,0,1,0,4.1l-.64.65Z"/><path class="cls-2" d="M24.33,18.51a5,5,0,0,0-3.33,1l-.87.53a4.59,4.59,0,0,1-3.85.18l-2.46-1.19a5,5,0,0,0-5.3.77L2.78,25.23a4.24,4.24,0,0,0,.53,5.7l3.62,3.72"/><path class="cls-3" d="M30.72,25.65l10,9.92,4.93,4.88a2.63,2.63,0,0,1,0,3.72h0a2.64,2.64,0,0,1-3.72,0l-4.73-4.74"/><path class="cls-2" d="M37.19,39.49l4.74,4.74a2.64,2.64,0,0,1,0,3.72h0a2.63,2.63,0,0,1-3.72,0l-4.74-4.74"/><path class="cls-2" d="M30.7,25.64l-2,2a3.24,3.24,0,0,1-4.59-.09h0A3.24,3.24,0,0,1,24,23l3-2.82"/><path class="cls-2" d="M33.45,43.25l3.31,3.31a2.67,2.67,0,0,1,0,3.77h0a2.68,2.68,0,0,1-3.78,0L29.68,47"/><path class="cls-2" d="M29.69,47.06l1.71,1.71a2.67,2.67,0,0,1,0,3.77h0a2.65,2.65,0,0,1-3.77,0l-.29-.25"/><path class="cls-2" d="M19.13,47.89l1.77-1.77a2.9,2.9,0,0,1,4.11,0l.12.12a2.9,2.9,0,0,1,0,4.1l-1.77,1.77a2.9,2.9,0,0,1-4.11,0L19.13,52"/><path class="cls-2" d="M14,44.57l2.88-2.87a3,3,0,0,1,4.22,0h0a3,3,0,0,1,0,4.22L18.22,48.8a3,3,0,0,1-4.23,0l-.15-.16"/><path class="cls-2" d="M13,37.16a2.94,2.94,0,0,1,4.16,0l.06.06a2.94,2.94,0,0,1,0,4.16L13.26,45.3a2.94,2.94,0,0,1-4.16,0,4.44,4.44,0,0,1-.69-1.09"/><rect class="cls-2" x="4.45" y="33.55" width="9.76" height="5.97" rx="2.74" transform="translate(-23.1 17.3) rotate(-45)"/><path class="cls-2" d="M46,36.47l7.41-7.7a4.56,4.56,0,0,0,.2-5.85L48,17.69a4.3,4.3,0,0,0-3.45-1.13,6,6,0,0,0-2.4.82l-3.31,2.15a3.78,3.78,0,0,1-3.49,0L34.6,19a6,6,0,0,0-3.28-.78A6.79,6.79,0,0,0,27,20.13"/></svg>